<?xml version="1.0" encoding="UTF-8"?>
<svg width="16px" height="10px" viewBox="0 0 16 10" version="1.1" xmlns="http://www.w3.org/2000/svg"
     xmlns:xlink="http://www.w3.org/1999/xlink">
  <defs>
    <path
      d="M15.1724138,4.11764706 L2.8137931,4.11764706 L5.26896552,1.5 C5.6,1.14705882 5.6,0.588235294 5.26896552,0.264705882 C4.93793103,-0.0882352941 4.4137931,-0.0882352941 4.11034483,0.264705882 L0.248275862,4.38235294 C-0.0827586207,4.73529412 -0.0827586207,5.29411765 0.248275862,5.61764706 L4.11034483,9.73529412 C4.27586207,9.91176471 4.49655172,10 4.68965517,10 C4.88275862,10 5.10344828,9.91176471 5.26896552,9.73529412 C5.6,9.38235294 5.6,8.82352941 5.26896552,8.5 L2.8137931,5.88235294 L15.1724138,5.88235294 C15.6413793,5.88235294 16,5.5 16,5 C16,4.5 15.6413793,4.11764706 15.1724138,4.11764706"
      id="path-1"></path>
  </defs>
  <g id="Page-1" stroke="none" stroke-width="1" fill="none" fill-rule="evenodd">
    <g id="R2_BNP PARIBAS_Newsroom_B_" transform="translate(-474.000000, -2981.000000)">
      <g id="Nos-ressources" transform="translate(-1.000000, 2404.000000)">
        <g id="CTA_primaire" transform="translate(249.000000, 546.000000)">
          <g id="Group" transform="translate(63.000000, 26.000000)">
            <g id="Arrow_links" transform="translate(163.000000, 5.000000)">
              <g id="icone"
                 transform="translate(8.000000, 5.000000) rotate(-180.000000) translate(-8.000000, -5.000000) ">
                <g id="Color_Teal_Blue">
                  <mask id="mask-2" fill="white">
                    <use xlink:href="#path-1"></use>
                  </mask>
                  <use id="Mask" fill="#ffffff" xlink:href="#path-1"></use>
                  <g mask="url(#mask-2)">
                    <rect id="Background" x="0" y="0" width="16" height="10"></rect>
                    <rect id="Rectangle-3" fill="#FFFFFF" x="0" y="0" width="16" height="10"></rect>
                  </g>
                </g>
              </g>
            </g>
          </g>
        </g>
      </g>
    </g>
  </g>
</svg>
